<svg width="1127" height="365" viewBox="0 0 1127 365" fill="none" xmlns="http://www.w3.org/2000/svg">
<g clip-path="url(#clip0_123_1366)">
<path d="M362 182.5C362 283.292 279.911 365 178.649 365V223.459C178.649 221.193 174.983 220.494 173.978 222.525C159.039 252.743 127.797 273.537 91.6753 273.537C41.0444 273.537 0 232.683 0 182.287C0 131.891 41.0444 91.0373 91.6753 91.0373C127.797 91.0373 159.039 111.831 173.978 142.049C174.983 144.081 178.649 143.382 178.649 141.115V0H362V182.5Z" fill="#3CE496"/>
<path d="M1058.89 182.953L1075.99 119.085H1127L1079.44 240.152L1058.98 291.828H1011.67L1036.41 236.027L990.226 119.085H1041.49L1058.89 182.953Z" fill="#129458"/>
<path fill-rule="evenodd" clip-rule="evenodd" d="M592.612 116.624C599.676 116.624 606.166 117.854 612.081 120.315C615.862 121.744 619.23 123.554 622.185 125.744V119.085H669.255V240.152H622.185V233.527C619.23 235.756 615.862 237.637 612.081 239.168C606.166 241.465 599.676 242.613 592.612 242.613C581.275 242.613 571.253 239.906 562.546 234.493C553.838 229.079 547.02 221.697 542.091 212.346C537.162 202.831 534.698 191.922 534.698 179.619C534.698 167.315 537.162 156.406 542.091 146.891C547.02 137.376 553.838 129.994 562.546 124.744C571.253 119.331 581.275 116.624 592.612 116.624ZM603.701 158.948C599.758 158.948 596.226 159.85 593.105 161.655C590.147 163.459 587.765 165.921 585.958 169.038C584.151 172.155 583.247 175.682 583.247 179.619C583.247 183.556 584.069 187.082 585.712 190.199C587.519 193.316 589.983 195.778 593.105 197.582C596.226 199.387 599.676 200.289 603.455 200.289C609.533 200.289 614.381 198.401 617.995 194.628C621.774 190.691 623.663 185.688 623.663 179.619C623.663 175.518 622.842 171.991 621.199 169.038C619.556 165.921 617.174 163.459 614.052 161.655C611.095 159.85 607.644 158.948 603.701 158.948Z" fill="#129458"/>
<path d="M766.426 116.624C772.012 116.624 776.776 117.281 780.719 118.593C784.827 119.905 788.113 121.791 790.578 124.252L763.469 162.639C762.319 161.327 760.594 160.26 758.294 159.44C756.158 158.456 753.611 157.964 750.654 157.964C745.725 157.964 742.029 159.44 739.564 162.393C737.1 165.182 735.868 169.284 735.868 174.697V240.152H687.565V119.085H735.868V125.436C744.119 119.561 754.305 116.624 766.426 116.624Z" fill="#129458"/>
<path d="M943.488 116.624C953.181 116.624 961.725 118.675 969.118 122.776C976.675 126.877 982.59 132.783 986.862 140.494C991.133 148.204 993.269 157.473 993.269 168.3V240.152H944.966V170.76C944.966 166.659 943.734 163.459 941.27 161.163C938.806 158.702 935.684 157.472 931.905 157.472C929.277 157.472 926.895 158.046 924.759 159.194C922.788 160.178 921.225 161.655 920.075 163.623C919.09 165.592 918.597 167.972 918.597 170.76V240.152H870.295V170.76C870.295 166.659 869.063 163.459 866.599 161.163C864.135 158.702 861.012 157.472 857.233 157.472C854.605 157.472 852.222 158.046 850.087 159.194C848.115 160.178 846.555 161.655 845.405 163.623C844.419 165.592 843.926 167.972 843.926 170.76V240.152H795.623V119.085H843.926V125.528C845.635 124.338 847.442 123.256 849.348 122.284C856.741 118.511 865.12 116.624 874.485 116.624C882.699 116.624 890.093 118.593 896.665 122.53C900.234 124.616 903.411 127.141 906.196 130.103C909.087 127.438 912.317 125.159 915.886 123.268C923.936 118.839 933.137 116.624 943.488 116.624Z" fill="#129458"/>
<path d="M500.028 69.9088C507.257 69.9088 513.172 72.3693 517.772 77.2906C522.372 82.048 524.672 87.9543 524.672 95.0084C524.672 102.062 522.372 108.049 517.772 112.971C513.172 117.728 507.257 120.108 500.028 120.108C492.963 120.108 487.049 117.728 482.285 112.971C477.685 108.049 475.385 102.062 475.385 95.0084C475.385 87.9543 477.685 82.048 482.285 77.2906C487.049 72.3695 492.963 69.9089 500.028 69.9088Z" fill="#129458"/>
<path d="M498.095 288.424C506.073 283.837 512.26 277.529 516.656 269.501C521.052 261.474 523.25 252.299 523.25 241.978V118.862H475.385V295.092C483.95 294.427 491.521 292.204 498.095 288.424Z" fill="#129458"/>
</g>
<defs>
<clipPath id="clip0_123_1366">
<rect width="1127" height="365" fill="white"/>
</clipPath>
</defs>
</svg>
